<svg xmlns="http://www.w3.org/2000/svg" width="277.4967499999152mm" height="68.30866666660383mm" viewBox="0 0 277.4967499999152 68.30866666660383">
    <g transform="translate(2.645833333301914, 2.645833333301914)">
        <path d="M15.1580,-2.3336 L15.1580,-2.3336 Q15.1580,-0.9022 15.1051,2.0135 Q15.0521,4.9292 14.9992,8.7974 Q14.9463,12.6656 14.8934,17.1715 Q14.8405,21.6747 14.7876,26.2864 Q14.7346,30.8980 14.7082,35.3245 Q14.6817,39.7484 14.7346,43.4049 Q14.7876,47.0641 14.8669,49.6596 Q14.9463,52.2579 15.1580,53.2104 L15.1580,53.2104 M6.4664,19.5024 L6.4664,19.5024 Q4.3471,19.3966 2.9951,18.0446 Q1.6431,16.6926 1.6431,14.7849 L1.6431,14.7849 Q1.6431,12.6127 2.7834,9.8822 Q3.9211,7.1543 6.0431,4.6884 Q8.1624,2.2251 11.2369,0.5556 Q14.3113,-1.1139 18.1795,-1.1139 L18.1795,-1.1139 Q21.8361,-1.1139 24.8576,1.0054 Q27.8791,3.1247 30.0514,6.5961 Q32.2236,10.0700 33.4169,14.5203 Q34.6101,18.9733 34.6101,23.6379 L34.6101,23.6379 Q34.6101,28.2998 33.6550,32.7792 Q32.6999,37.2586 30.7393,40.7564 Q28.7787,44.2542 25.8630,46.4000 Q22.9500,48.5457 18.9733,48.5457 L18.9733,48.5457 Q16.6952,48.5457 14.7611,48.1224 Q12.8270,47.6991 11.3956,47.0112 Q9.9642,46.3206 9.0620,45.4210 Q8.1624,44.5188 7.9507,43.5636 L7.9507,43.5636 M52.6547,27.7707 L52.6547,27.7707 Q52.2314,28.6200 51.0381,30.2101 Q49.8449,31.7976 48.3896,33.3349 Q46.9318,34.8721 45.4739,36.0389 Q44.0161,37.2057 43.0080,37.2057 L43.0080,37.2057 Q42.2672,37.2057 41.8174,36.5151 Q41.3650,35.8272 41.1268,34.7133 Q40.8887,33.6021 40.8093,32.1707 Q40.7300,30.7393 40.7829,29.3079 Q40.8358,27.8765 40.9681,26.5245 Q41.1004,25.1751 41.2062,24.2200 L41.2062,24.2200 M41.6322,17.8594 L41.6322,17.8594 Q41.6322,17.2244 42.2672,17.2244 L42.2672,17.2244 Q42.9022,17.2244 42.9022,17.8594 L42.9022,17.8594 Q42.9022,18.4970 42.2672,18.4970 L42.2672,18.4970 Q41.6322,18.4970 41.6322,17.8594 M60.6319,27.6648 L60.6319,27.6648 Q60.5790,27.0827 60.0736,26.5509 Q59.5709,26.0218 58.8830,25.5984 Q58.1925,25.1751 57.3458,24.9343 Q56.4965,24.6962 55.7027,24.6962 L55.7027,24.6962 Q54.9063,24.6962 54.3242,25.0666 Q53.7422,25.4397 53.3956,25.9953 Q53.0516,26.5509 52.8929,27.2415 Q52.7341,27.9294 52.7341,28.6200 L52.7341,28.6200 Q52.7341,30.0487 53.4776,30.8187 Q54.2184,31.5860 55.3852,31.5860 L55.3852,31.5860 Q56.9754,31.5860 58.8566,30.0223 Q60.7377,28.4586 61.9046,25.0666 L61.9046,25.0666 Q62.5396,25.1222 63.2275,26.4186 Q63.9180,27.7177 64.4737,29.8106 Q65.0293,31.9061 65.3759,34.5546 Q65.7199,37.2057 65.7199,39.9600 L65.7199,39.9600 Q65.7199,41.8677 65.5082,43.7515 Q65.2965,45.6327 64.8441,47.3022 Q64.3943,48.9717 63.6799,50.4031 Q62.9629,51.8319 61.9046,52.8399 L61.9046,52.8399 Q60.9494,53.7422 59.4122,54.3772 Q57.8750,55.0122 56.4965,55.0122 L56.4965,55.0122 Q55.2794,55.0122 54.4301,54.4301 Q53.5834,53.8480 53.5834,52.4166 L53.5834,52.4166 Q53.5834,51.9377 53.6892,51.3821 Q53.7951,50.8265 54.0597,50.0830 L54.0597,50.0830 Q54.8534,47.9637 56.6552,45.8444 Q58.4570,43.7250 60.7642,41.6560 Q63.0687,39.5896 65.6405,37.6555 Q68.2096,35.7214 70.4638,33.9460 Q72.7154,32.1707 74.4114,30.6070 Q76.1074,29.0433 76.7424,27.7707 L76.7424,27.7707 M88.6936,27.7707 L88.6936,27.7707 Q88.2703,28.6200 87.0770,30.2101 Q85.8837,31.7976 84.4285,33.3349 Q82.9707,34.8721 81.5128,36.0389 Q80.0550,37.2057 79.0469,37.2057 L79.0469,37.2057 Q78.3061,37.2057 77.8563,36.5151 Q77.4039,35.8272 77.1657,34.7133 Q76.9276,33.6021 76.8482,32.1707 Q76.7689,30.7393 76.8218,29.3079 Q76.8747,27.8765 77.0070,26.5245 Q77.1393,25.1751 77.2451,24.2200 L77.2451,24.2200 M77.6711,17.8594 L77.6711,17.8594 Q77.6711,17.2244 78.3061,17.2244 L78.3061,17.2244 Q78.9411,17.2244 78.9411,17.8594 L78.9411,17.8594 Q78.9411,18.4970 78.3061,18.4970 L78.3061,18.4970 Q77.6711,18.4970 77.6711,17.8594 M89.6752,4.9821 L89.6752,4.9821 Q89.4609,8.6916 89.2757,13.4091 Q89.0905,18.1240 88.9582,23.2384 Q88.8259,28.3527 88.7730,33.5201 Q88.7201,38.6900 88.7995,43.2197 Q88.8788,47.7520 89.1170,51.3821 Q89.3551,55.0122 89.8340,57.0256 L89.8340,57.0256 M79.7639,13.3562 L79.7639,13.3562 Q81.5657,13.3562 83.7380,13.1948 Q85.9102,13.0360 88.2174,12.8508 Q90.5219,12.6656 92.8529,12.5069 Q95.1865,12.3481 97.3587,12.3481 L97.3587,12.3481 Q99.0018,12.3481 100.4861,12.4804 Q101.9704,12.6127 103.2431,12.8773 L103.2431,12.8773 M103.4812,30.2101 L103.4812,30.2101 Q103.2695,27.7707 102.3144,26.5774 Q101.3592,25.3868 100.4596,25.3868 L100.4596,25.3868 Q99.3457,25.3868 98.6049,26.2070 Q97.8614,27.0298 97.4116,28.1146 Q96.9619,29.2021 96.7766,30.2895 Q96.5914,31.3743 96.5914,31.9590 L96.5914,31.9590 Q96.5914,33.1232 97.2264,33.9460 Q97.8614,34.7662 98.7637,34.7662 L98.7637,34.7662 Q99.6632,34.7662 100.5390,33.9725 Q101.4121,33.1761 102.1556,32.1178 Q102.8965,31.0568 103.4812,29.9429 Q104.0633,28.8316 104.3808,28.1411 L104.3808,28.1411 Q104.3808,28.1411 104.5660,27.7971 Q104.7512,27.4532 104.9655,27.0563 Q105.1772,26.6568 105.3624,26.3393 Q105.5476,26.0218 105.5476,26.0218 L105.5476,26.0218 Q105.5476,27.1357 105.6005,28.8052 Q105.6534,30.4747 105.9445,32.0649 Q106.2355,33.6550 106.7673,34.7927 Q107.2965,35.9331 108.2490,35.9331 L108.2490,35.9331 Q108.6750,35.9331 109.4687,35.4304 Q110.2651,34.9250 111.1911,34.1577 Q112.1198,33.3878 113.0988,32.4088 Q114.0804,31.4272 114.9006,30.5276 Q115.7235,29.6254 116.3320,28.8846 Q116.9432,28.1411 117.1549,27.7707 L117.1549,27.7707 Q116.9961,28.1411 116.3585,28.8846 Q115.7235,29.6254 114.9006,30.5276 M117.2871,22.7356 Q118.4540,22.0477 119.2477,20.2988 Q120.0441,18.5499 120.5468,16.3221 Q121.0495,14.0970 121.2347,11.7131 Q121.4226,9.3266 121.2876,7.3395 Q121.1554,5.3525 120.7056,4.0534 Q120.2558,2.7543 119.5123,2.7543 L119.4065,2.7543 Q118.8244,4.1328 118.3746,7.3660 Q117.9221,10.5992 117.6311,14.7320 Q117.3401,18.8674 117.2871,23.5056 Q117.2342,28.1411 117.4194,32.3030 Q117.6046,36.4622 118.0571,39.7748 Q118.5069,43.0874 119.2477,44.5717 M156.1888,16.0576 L156.1888,16.0576 Q156.9323,15.4226 157.5144,14.3880 Q158.0965,13.3562 158.5225,12.0306 Q158.9458,10.7050 159.1839,9.1678 Q159.4220,7.6306 159.4220,6.0404 L159.4220,6.0404 Q159.4220,2.2781 158.1229,0.1852 Q156.8265,-1.9103 154.3341,-1.9103 L154.3341,-1.9103 Q152.3206,-1.9103 150.0135,-0.6112 Q147.7089,0.6879 145.7748,2.7014 Q143.8407,4.7149 142.5416,7.1279 Q141.2425,9.5382 141.2425,11.8189 L141.2425,11.8189 Q141.2425,14.0441 142.4622,16.2957 Q143.6820,18.5499 145.5367,20.8545 Q147.3914,23.1590 149.5372,25.4661 Q151.6830,27.7707 153.5404,30.1016 Q155.3951,32.4353 156.6122,34.7398 Q157.8319,37.0470 157.8319,39.3250 L157.8319,39.3250 Q157.8319,41.2327 156.9588,43.0345 Q156.0830,44.8363 154.6516,46.2677 Q153.2202,47.6991 151.3919,48.5457 Q149.5637,49.3951 147.6560,49.3951 L147.6560,49.3951 Q145.9600,49.3951 145.0605,48.7336 Q144.1582,48.0695 144.1582,46.9556 L144.1582,46.9556 Q144.1582,45.9502 144.9255,44.3600 Q145.6955,42.7699 147.0210,40.9152 Q148.3439,39.0604 150.1219,37.0205 Q151.8973,34.9779 153.8579,33.0438 Q155.8184,31.1097 157.9113,29.3873 Q160.0041,27.6648 161.9673,26.4451 L161.9673,26.4451 M171.3759,30.2101 L171.3759,30.2101 Q171.1642,27.7707 170.2091,26.5774 Q169.2540,25.3868 168.3544,25.3868 L168.3544,25.3868 Q167.2405,25.3868 166.4996,26.2070 Q165.7562,27.0298 165.3064,28.1146 Q164.8566,29.2021 164.6714,30.2895 Q164.4862,31.3743 164.4862,31.9590 L164.4862,31.9590 Q164.4862,33.1232 165.1212,33.9460 Q165.7562,34.7662 166.6584,34.7662 L166.6584,34.7662 Q167.5580,34.7662 168.4337,33.9725 Q169.3069,33.1761 170.0504,32.1178 Q170.7912,31.0568 171.3759,29.9429 Q171.9580,28.8316 172.2755,28.1411 L172.2755,28.1411 Q172.2755,28.1411 172.4607,27.7971 Q172.6459,27.4532 172.8602,27.0563 Q173.0719,26.6568 173.2571,26.3393 Q173.4423,26.0218 173.4423,26.0218 L173.4423,26.0218 Q173.4423,27.1357 173.4952,28.8052 Q173.5481,30.4747 173.8392,32.0649 Q174.1302,33.6550 174.6620,34.7927 Q175.1912,35.9331 176.1437,35.9331 L176.1437,35.9331 Q176.5697,35.9331 177.3634,35.4304 Q178.1598,34.9250 179.0859,34.1577 Q180.0146,33.3878 180.9935,32.4088 Q181.9751,31.4272 182.7953,30.5276 Q183.6182,29.6254 184.2267,28.8846 Q184.8379,28.1411 185.0496,27.7707 L185.0496,27.7707 Q184.8908,28.1411 184.2532,28.8846 Q183.6182,29.6254 182.7953,30.5276 M185.0734,22.7886 Q185.0734,24.1670 185.1528,26.3128 Q185.2321,28.4586 185.2586,30.7657 Q185.2851,33.0703 185.1792,35.3245 Q185.0734,37.5761 184.7030,39.1663 Q184.7030,38.3170 185.0734,36.9411 Q185.4438,35.5626 186.0550,33.9725 Q186.6635,32.3824 187.4308,30.7657 Q188.2008,29.1491 189.0210,27.8236 Q189.8438,26.4980 190.6376,25.6778 Q191.4340,24.8550 192.0690,24.8550 Q192.3865,24.8550 192.6008,25.0666 Q193.3945,25.7043 193.9237,27.1886 Q194.4555,28.6729 195.0641,30.2895 Q195.6726,31.9061 196.4425,33.2555 Q197.2098,34.6075 198.3766,34.8721 M214.1432,29.2021 L214.1432,29.2021 Q214.0373,27.9823 213.3494,27.2415 Q212.6615,26.4980 211.7857,26.0747 Q210.9100,25.6514 210.0897,25.5191 Q209.2669,25.3868 208.8965,25.3868 L208.8965,25.3868 Q207.9969,25.3868 207.1211,25.9159 Q206.2480,26.4451 205.5839,27.3209 Q204.9224,28.1940 204.4991,29.3079 Q204.0731,30.4218 204.0731,31.5330 L204.0731,31.5330 Q204.0731,33.2819 204.9489,34.5281 Q205.8220,35.7743 207.0417,35.7743 L207.0417,35.7743 Q208.4202,35.7743 209.5077,34.5017 Q210.5925,33.2290 211.4682,31.1097 Q212.3414,28.9904 213.0319,26.2070 Q213.7198,23.4236 214.2490,20.3782 Q214.7808,17.3302 215.1512,14.2293 Q215.5216,11.1284 215.8127,8.3741 Q216.1064,5.6171 216.2916,3.4184 Q216.4768,1.2171 216.6355,0.0000 L216.6355,0.0000 Q216.3180,1.3758 215.9979,4.1063 Q215.6804,6.8368 215.4158,10.3611 Q215.1512,13.8853 214.9396,17.9652 Q214.7279,22.0477 214.6485,26.1011 Q214.5691,30.1546 214.5956,33.9196 Q214.6221,37.6820 214.8602,40.5977 Q215.0983,43.5107 215.5216,45.2861 Q215.9450,47.0641 216.6355,47.1699 L216.6355,47.1699 M222.6495,3.6565 L222.6495,3.6565 Q221.9616,13.2477 222.1468,21.9154 Q222.3320,30.5805 222.5966,38.4228 L222.5966,38.4228 Q222.5966,37.8936 222.8612,36.6210 Q223.1284,35.3510 223.6047,33.8137 Q224.0809,32.2765 224.7186,30.6070 Q225.3536,28.9375 226.0679,27.5590 Q226.7850,26.1805 227.5522,25.3074 Q228.3222,24.4316 229.0101,24.4316 L229.0101,24.4316 Q229.5393,24.4316 230.1240,24.9079 Q230.7061,25.3868 231.2088,26.1805 Q231.7141,26.9769 232.0316,28.0352 Q232.3491,29.0962 232.3491,30.3160 L232.3491,30.3160 Q232.3491,32.3824 231.8994,33.7079 Q231.4496,35.0308 230.5738,35.8272 Q229.7007,36.6210 228.3486,37.0205 Q226.9966,37.4174 225.2477,37.5761 L225.2477,37.5761 Q227.2083,37.4174 229.6477,36.5151 Q232.0846,35.6156 234.4685,34.2635 Q236.8550,32.9115 238.9214,31.2155 Q240.9878,29.5196 242.2075,27.7707 L242.2075,27.7707 M244.9909,25.4926 L244.9909,25.4926 Q244.6708,25.3868 244.1152,25.7307 Q243.5595,26.0747 243.0568,26.6832 Q242.5515,27.2944 242.1811,28.1675 Q241.8106,29.0433 241.8106,30.1016 L241.8106,30.1016 Q241.8106,30.5805 241.9429,31.2685 Q242.0752,31.9590 242.3927,32.5411 Q242.7102,33.1232 243.1891,33.5492 Q243.6654,33.9725 244.3004,33.9725 L244.3004,33.9725 Q245.0439,33.9725 245.6789,33.5492 Q246.3139,33.1232 246.7927,32.4882 Q247.2690,31.8532 247.5336,31.0832 Q247.7982,30.3160 247.7982,29.6254 L247.7982,29.6254 Q247.7982,29.1491 247.6130,28.4877 Q247.4277,27.8236 247.1102,27.2415 Q246.7927,26.6568 246.3139,26.2599 Q245.8376,25.8630 245.2026,25.8630 L245.2026,25.8630 Q244.9909,25.8630 244.8851,26.0747 Q244.7793,26.2864 244.7793,26.4980 L244.7793,26.4980 Q244.7793,26.9769 245.3878,27.4002 Q245.9964,27.8236 247.0044,28.1940 Q248.0098,28.5671 249.3089,28.7787 Q250.6080,28.9904 251.9865,28.9904 L251.9865,28.9904 Q253.4708,28.9904 254.8758,28.6994 Q256.2781,28.4057 257.3920,27.7707 L257.3920,27.7707 M256.2516,24.1670 L256.2516,24.1670 Q256.4633,25.1222 257.1274,26.7891 Q257.7888,28.4586 258.6646,30.2101 Q259.5377,31.9590 260.4929,33.4142 Q261.4454,34.8721 262.1889,35.4568 L262.1889,35.4568 Q263.1414,36.1976 264.3082,36.1976 L264.3082,36.1976 Q265.6866,36.1976 267.1180,35.2716 Q268.5494,34.3429 269.8459,33.0174 Q271.1450,31.6918 272.2589,30.2366 Q273.3728,28.7787 274.0607,27.7707 L274.0607,27.7707 M264.7315,25.8630 L264.7315,25.8630 Q264.7315,25.8630 264.0700,26.7361 Q263.4086,27.6119 262.4270,28.9375 Q261.4454,30.2630 260.3077,31.8532 Q259.1673,33.4407 258.1592,34.8456 Q257.1538,36.2506 256.4633,37.2586 Q255.7754,38.2640 255.6695,38.4228 L255.6695,38.4228 Q263.4086,27.6119 264.0436,26.7361 Q264.6786,25.8630 264.7315,25.8630" fill="none" stroke="black" stroke-width="0.1"/>
    </g>
</svg>